<svg preserveAspectRatio="none" overflow="visible" style="display: block;" width="20" height="20" viewBox="0 0 20 20" fill="none" xmlns="http://www.w3.org/2000/svg">
<g id="SVG">
<path id="Vector" d="M12.5 17.5V13.3333C12.5 12.8731 12.1269 12.5 11.6667 12.5H8.33333C7.8731 12.5 7.5 12.8731 7.5 13.3333V17.5" stroke="#4B6515" stroke-width="1.66667" stroke-linecap="round" stroke-linejoin="round"/>
<path id="Vector_2" d="M13.5208 8.59167C13.8817 8.24616 14.4507 8.24616 14.8117 8.59167C15.5862 9.33373 16.7975 9.3656 17.611 8.66641C18.4244 7.96722 18.574 6.76467 17.9567 5.8875L15.5442 2.39417C15.2336 1.9388 14.7179 1.66646 14.1667 1.66667H5.83333C5.28045 1.66656 4.7635 1.94065 4.45333 2.39833L2.04583 5.885C1.42868 6.76144 1.57732 7.96315 2.38942 8.66281C3.20153 9.36247 4.412 9.33169 5.1875 8.59167C5.54842 8.24616 6.11741 8.24616 6.47833 8.59167C7.28334 9.35992 8.54999 9.35992 9.355 8.59167C9.71581 8.24669 10.2842 8.24669 10.645 8.59167C11.4499 9.35939 12.7159 9.35939 13.5208 8.59167Z" stroke="#4B6515" stroke-width="1.66667" stroke-linecap="round" stroke-linejoin="round"/>
<path id="Vector_3" d="M3.33333 9.125V15.8333C3.33333 16.7538 4.07953 17.5 5 17.5H15C15.9205 17.5 16.6667 16.7538 16.6667 15.8333V9.125" stroke="#4B6515" stroke-width="1.66667" stroke-linecap="round" stroke-linejoin="round"/>
</g>
</svg>
