<svg preserveAspectRatio="none" overflow="visible" style="display: block;" width="10.9377" height="14.9855" viewBox="0 0 10.9377 14.9855" fill="none" xmlns="http://www.w3.org/2000/svg">
<g id="Margin">
<path id="Icon" d="M2.81413 13.6522V13.9138C2.81413 14.2115 2.7096 14.4645 2.50055 14.6729C2.29149 14.8813 2.03877 14.9855 1.74239 14.9855C1.44602 14.9855 1.19263 14.8803 0.982247 14.6699C0.77186 14.4595 0.666667 14.2062 0.666667 13.9098V12.8685C0.466667 12.6378 0.305556 12.3811 0.183333 12.0985C0.0611111 11.8159 0 11.5109 0 11.1833V4.80218C0 3.83478 0.43907 3.12591 1.31721 2.67554C2.19535 2.22518 3.57979 2 5.47052 2C7.42959 2 8.83055 2.216 9.6734 2.648C10.5163 3.08001 10.9377 3.79806 10.9377 4.80218V11.1833C10.9377 11.5109 10.8766 11.8159 10.7544 12.0985C10.6321 12.3811 10.471 12.6378 10.271 12.8685V13.9138C10.271 14.2115 10.1665 14.4645 9.95743 14.6729C9.74837 14.8813 9.49566 14.9855 9.19928 14.9855C8.9029 14.9855 8.64952 14.8803 8.43913 14.6699C8.22875 14.4595 8.12355 14.2062 8.12355 13.9098V13.6522H2.81413V13.6522M1.51667 7.51667H9.42102V5.51667H1.51667V7.51667V7.51667M3.15942 11.4928C3.4372 11.4928 3.67331 11.3955 3.86776 11.2011C4.0622 11.0066 4.15942 10.7705 4.15942 10.4928C4.15942 10.215 4.0622 9.97887 3.86776 9.78442C3.67331 9.58998 3.4372 9.49276 3.15942 9.49276C2.88165 9.49276 2.64554 9.58998 2.45109 9.78442C2.25665 9.97887 2.15942 10.215 2.15942 10.4928C2.15942 10.7705 2.25665 11.0066 2.45109 11.2011C2.64554 11.3955 2.88165 11.4928 3.15942 11.4928V11.4928M7.77826 11.4928C8.05604 11.4928 8.29215 11.3955 8.4866 11.2011C8.68104 11.0066 8.77826 10.7705 8.77826 10.4928C8.77826 10.215 8.68104 9.97887 8.4866 9.78442C8.29215 9.58998 8.05604 9.49276 7.77826 9.49276C7.50049 9.49276 7.26437 9.58998 7.06993 9.78442C6.87549 9.97887 6.77826 10.215 6.77826 10.4928C6.77826 10.7705 6.87549 11.0066 7.06993 11.2011C7.26437 11.3955 7.50049 11.4928 7.77826 11.4928V11.4928" fill="#4B5563"/>
</g>
</svg>
