<svg preserveAspectRatio="none" overflow="visible" style="display: block;" width="16.6829" height="16.7989" viewBox="0 0 16.6829 16.7989" fill="none" xmlns="http://www.w3.org/2000/svg">
<g id="Container">
<path id="Icon" d="M7.43339 15.8909V5.89086H1.19109C0.956182 5.89086 0.80514 5.78118 0.73796 5.56182C0.67078 5.34247 0.732148 5.16727 0.922064 5.03623L7.79254 0.186595C7.96524 0.0621982 8.14822 0 8.34145 0C8.53469 0 8.71766 0.0621982 8.89037 0.186595L15.7608 5.03623C15.9508 5.16727 16.0121 5.34247 15.9449 5.56182C15.8778 5.78118 15.7267 5.89086 15.4918 5.89086H9.24952V15.8909C9.24952 16.1469 9.16218 16.3622 8.98751 16.5369C8.81285 16.7116 8.59749 16.7989 8.34145 16.7989C8.08541 16.7989 7.87006 16.7116 7.69539 16.5369C7.52072 16.3622 7.43339 16.1469 7.43339 15.8909ZM0.53755 15.8909V12.3592L0.0167162 9.50997C-0.0282718 9.25393 0.0175466 9.02733 0.154171 8.83017C0.290796 8.633 0.487128 8.51027 0.743167 8.46196C0.988639 8.41365 1.21343 8.46128 1.41753 8.60485C1.62164 8.74842 1.74619 8.94294 1.79118 9.18841L2.2554 11.6495H4.8188C5.08481 11.6495 5.30929 11.7409 5.49226 11.9239C5.67524 12.1069 5.76672 12.3314 5.76672 12.5974V15.8909C5.76672 16.1469 5.67939 16.3622 5.50472 16.5369C5.33005 16.7116 5.1147 16.7989 4.85866 16.7989C4.60262 16.7989 4.38644 16.7108 4.21011 16.5344C4.03378 16.3581 3.94561 16.1419 3.94561 15.8859V13.4656H2.35368V15.8909C2.35368 16.1469 2.26634 16.3622 2.09167 16.5369C1.91701 16.7116 1.70165 16.7989 1.44561 16.7989C1.18957 16.7989 0.97422 16.7116 0.799552 16.5369C0.624884 16.3622 0.53755 16.1469 0.53755 15.8909ZM10.9162 15.8859V12.5974C10.9162 12.3314 11.0077 12.1069 11.1906 11.9239C11.3736 11.7409 11.5981 11.6495 11.8641 11.6495H14.4275L14.8917 9.18841C14.9367 8.94294 15.0586 8.74842 15.2574 8.60485C15.4563 8.46128 15.6837 8.41365 15.9397 8.46196C16.1958 8.51027 16.3921 8.633 16.5287 8.83017C16.6654 9.02733 16.7112 9.25393 16.6662 9.50997L16.1454 12.3592V15.8909C16.1454 16.1469 16.058 16.3622 15.8834 16.5369C15.7087 16.7116 15.4933 16.7989 15.2373 16.7989C14.9813 16.7989 14.7659 16.7116 14.5912 16.5369C14.4166 16.3622 14.3292 16.1469 14.3292 15.8909V13.4656H12.7373V15.8909C12.7373 16.1469 12.65 16.3622 12.4753 16.5369C12.3006 16.7116 12.0853 16.7989 11.8292 16.7989C11.5732 16.7989 11.357 16.7108 11.1807 16.5344C11.0043 16.3581 10.9162 16.1419 10.9162 15.8859Z" fill="#DE3B75"/>
</g>
</svg>
