<svg preserveAspectRatio="none" overflow="visible" style="display: block;" width="10.5" height="15" viewBox="0 0 10.5 15" fill="none" xmlns="http://www.w3.org/2000/svg">
<g id="Container">
<path id="Icon" d="M5.25 10.8562C6.4875 9.85625 7.42188 8.89375 8.05313 7.96875C8.68438 7.04375 9 6.175 9 5.3625C9 4.2375 8.65 3.3125 7.95 2.5875C7.25 1.8625 6.35 1.5 5.25 1.5C4.15 1.5 3.25 1.8625 2.55 2.5875C1.85 3.3125 1.5 4.2375 1.5 5.3625C1.5 6.175 1.81563 7.04375 2.44688 7.96875C3.07813 8.89375 4.0125 9.85625 5.25 10.8562V10.8562M5.25 12.75C3.4875 11.45 2.17188 10.1875 1.30313 8.9625C0.434375 7.7375 0 6.5375 0 5.3625C0 3.8 0.4875 2.51562 1.4625 1.50937C2.4375 0.503125 3.7 0 5.25 0C6.8 0 8.0625 0.503125 9.0375 1.50937C10.0125 2.51562 10.5 3.8 10.5 5.3625C10.5 6.5375 10.0656 7.7375 9.19687 8.9625C8.32812 10.1875 7.0125 11.45 5.25 12.75V12.75M5.25 6.75C5.6625 6.75 6.01562 6.60312 6.30937 6.30937C6.60312 6.01562 6.75 5.6625 6.75 5.25C6.75 4.8375 6.60312 4.48438 6.30937 4.19063C6.01562 3.89688 5.6625 3.75 5.25 3.75C4.8375 3.75 4.48438 3.89688 4.19063 4.19063C3.89688 4.48438 3.75 4.8375 3.75 5.25C3.75 5.6625 3.89688 6.01562 4.19063 6.30937C4.48438 6.60312 4.8375 6.75 5.25 6.75V6.75M0 15V13.5H10.5V15H0V15M5.25 5.25V5.25V5.25V5.25V5.25V5.25V5.25V5.25V5.25V5.25" fill="#F59E0B"/>
</g>
</svg>
